<svg viewBox="0 0 380 257" fill="none" xmlns="http://www.w3.org/2000/svg">
<g clip-path="url(#clip0_1538_466)">
<path d="M319.411 257C352.874 257 380 254.958 380 252.438C380 249.918 352.874 247.876 319.411 247.876C285.949 247.876 258.823 249.918 258.823 252.438C258.823 254.958 285.949 257 319.411 257Z" fill="#1B1B1B"/>
<path d="M61.7134 70.7822C61.7328 66.1389 57.7777 62.3408 53.1352 62.3408H10.0563C5.48719 62.3408 1.53953 66.0761 1.48603 70.6457C1.46946 71.9444 1.75469 73.2293 2.31924 74.399C2.8838 75.5687 3.71225 76.5912 4.7393 77.3861C5.00257 77.5823 5.20975 77.8442 5.34013 78.1455C5.4705 78.4469 5.51952 78.7772 5.48226 79.1035C5.43229 79.4738 5.40723 79.847 5.40726 80.2207V110.024C5.40726 111.121 5.6233 112.207 6.04303 113.221C6.46276 114.234 7.07797 115.155 7.85353 115.931C8.62909 116.706 9.54982 117.322 10.5631 117.742C11.5765 118.161 12.6625 118.377 13.7593 118.377H49.1594C51.3745 118.377 53.4989 117.497 55.0652 115.931C56.6315 114.364 57.5115 112.239 57.5115 110.024V80.2207C57.5115 79.8937 57.4925 79.567 57.4544 79.2423C57.4207 78.9208 57.4736 78.5961 57.6077 78.3019C57.7417 78.0077 57.9519 77.7548 58.2166 77.5693C59.2945 76.7951 60.1735 75.7763 60.7813 74.5965C61.3892 73.4167 61.7086 72.1095 61.7134 70.7822Z" fill="#3F3D56"/>
<path d="M59.8479 69.965C59.633 68.3484 58.8346 66.8661 57.603 65.7973C56.3714 64.7286 54.7916 64.1471 53.1611 64.1624H10.0435C8.51926 64.1487 7.03595 64.6555 5.83854 65.5989C4.64114 66.5423 3.80127 67.866 3.45764 69.3514C3.16341 70.7165 3.31005 72.1398 3.8764 73.4163C4.44276 74.6927 5.3996 75.7564 6.6091 76.4541C6.95826 76.6538 7.23113 76.9639 7.38479 77.3357C7.53845 77.7075 7.56417 78.1198 7.45791 78.5078C7.3049 79.0665 7.22764 79.6432 7.2282 80.2225V110.023C7.2284 111.546 7.7603 113.021 8.73207 114.193C9.70383 115.366 11.0544 116.162 12.5507 116.445C12.9498 116.519 13.3549 116.556 13.7608 116.557H49.1609C49.7585 116.558 50.3534 116.476 50.9285 116.313C52.2989 115.927 53.5058 115.104 54.3654 113.969C55.2251 112.834 55.6905 111.449 55.6907 110.026V80.2197C55.6908 79.6773 55.623 79.137 55.489 78.6114C55.4525 78.4657 55.4337 78.3162 55.433 78.1659C55.4333 77.8365 55.5231 77.5134 55.6928 77.2311C55.8626 76.9488 56.1058 76.718 56.3966 76.5633L56.3995 76.5605C57.5726 75.9376 58.5298 74.9743 59.1453 73.7971C59.7608 72.6199 60.0057 71.284 59.8479 69.965Z" fill="#9F636F"/>
<path opacity="0.2" d="M55.6905 83.0744V80.2726H50.9283V64.1621H48.127V80.2726H33.1401V64.1621H30.3388V80.2726H15.3518V64.1621H12.5505V80.2726H7.22803V83.0744H12.5505V91.4799H7.22803V94.2818H12.5505V102.687H7.22803V105.489H12.5505V116.444C12.9496 116.519 13.3547 116.556 13.7607 116.556H15.3518V105.489H30.3388V116.556H33.1401V105.489H48.127V116.556H49.1607C49.7583 116.557 50.3532 116.475 50.9283 116.313V105.489H55.6905V102.687H50.9283V94.2817H55.6905V91.4799H50.9283V83.0744H55.6905ZM15.3518 83.0744H30.3388V91.4799H15.3518V83.0744ZM15.3518 102.687V94.2817H30.3388V102.687H15.3518ZM48.1271 102.687H33.1401V94.2817H48.1271V102.687ZM48.1271 91.4799H33.1401V83.0744H48.1271V91.4799Z" fill="#1B1B1B"/>
<path d="M61.5169 0C61.5169 3.92958 60.7431 7.82068 59.2396 11.4511C57.7361 15.0816 55.5324 18.3803 52.7543 21.159C49.9762 23.9376 46.6781 26.1417 43.0483 27.6455C39.4185 29.1493 35.5281 29.9233 31.5993 29.9233C27.6704 29.9233 23.7801 29.1493 20.1503 27.6455C16.5205 26.1417 13.2224 23.9376 10.4443 21.159C7.6662 18.3803 5.46249 15.0816 3.95899 11.4511C2.45548 7.82068 1.68164 3.92958 1.68164 0H61.5169Z" fill="#9F636F"/>
<path d="M12.6577 5.312C12.6577 6.0943 12.3802 6.72849 12.038 6.72849C11.6959 6.72849 11.4185 6.0943 11.4185 5.312C11.4561 4.78264 11.6749 4.28241 12.038 3.89551C12.4012 4.2824 12.62 4.78264 12.6577 5.312Z" fill="#3F3D56"/>
<path d="M43.9912 10.27C43.9912 11.0523 43.7137 11.6865 43.3715 11.6865C43.0294 11.6865 42.752 11.0523 42.752 10.27C42.7896 9.74065 43.0084 9.24041 43.3715 8.85352C43.7347 9.24041 43.9535 9.74065 43.9912 10.27Z" fill="#3F3D56"/>
<path d="M20.978 7.43699C20.978 8.2193 20.7006 8.85349 20.3584 8.85349C20.0162 8.85349 19.7388 8.2193 19.7388 7.43699C19.7764 6.90764 19.9952 6.4074 20.3584 6.02051C20.7216 6.4074 20.9404 6.90764 20.978 7.43699Z" fill="#3F3D56"/>
<path d="M33.3696 18.5913C33.3696 19.3736 33.0922 20.0078 32.75 20.0078C32.4078 20.0078 32.1304 19.3736 32.1304 18.5913C32.168 18.0619 32.3868 17.5617 32.75 17.1748C33.1131 17.5617 33.3319 18.0619 33.3696 18.5913Z" fill="#3F3D56"/>
<path d="M20.0927 17.1753C20.0927 17.9576 19.8153 18.5918 19.4731 18.5918C19.1309 18.5918 18.8535 17.9576 18.8535 17.1753C18.8911 16.6459 19.1099 16.1457 19.4731 15.7588C19.8363 16.1457 20.0551 16.6459 20.0927 17.1753Z" fill="#3F3D56"/>
<path d="M51.0722 3.895C51.0722 4.67731 50.7948 5.3115 50.4526 5.3115C50.1104 5.3115 49.833 4.67731 49.833 3.895C49.8706 3.36564 50.0894 2.86541 50.4526 2.47852C50.8158 2.86541 51.0346 3.36564 51.0722 3.895Z" fill="#3F3D56"/>
<path d="M39.7426 21.4243C39.7426 22.2066 39.4652 22.8408 39.123 22.8408C38.7808 22.8408 38.5034 22.2066 38.5034 21.4243C38.541 20.8949 38.7598 20.3947 39.123 20.0078C39.4862 20.3947 39.705 20.8949 39.7426 21.4243Z" fill="#3F3D56"/>
<path d="M31.5994 31.6054C23.2216 31.5959 15.1897 28.263 9.26573 22.3379C3.34174 16.4128 0.00948288 8.37935 0 0H3.3635C3.3635 3.70869 4.09384 7.38106 5.51283 10.8074C6.93182 14.2338 9.01165 17.3471 11.6336 19.9695C14.2555 22.592 17.3682 24.6722 20.794 26.0915C24.2197 27.5107 27.8914 28.2412 31.5994 28.2412C35.3074 28.2412 38.9791 27.5107 42.4048 26.0915C45.8305 24.6722 48.9432 22.592 51.5652 19.9695C54.1871 17.3471 56.267 14.2338 57.6859 10.8074C59.1049 7.38106 59.8353 3.70869 59.8353 0H63.1988C63.1893 8.37934 59.857 16.4128 53.9331 22.3379C48.0091 28.263 39.9772 31.5959 31.5994 31.6054Z" fill="#3F3D56"/>
<path d="M104.385 10.8506H94.4824V20.7553H104.385V10.8506Z" fill="#3F3D56"/>
<path d="M201.433 15.3076H121.715V16.2981H201.433V15.3076Z" fill="#3F3D56"/>
<path d="M104.385 85.4072H94.4824V95.3119H104.385V85.4072Z" fill="#3F3D56"/>
<path d="M201.433 89.8643H121.715V90.8547H201.433V89.8643Z" fill="#3F3D56"/>
<path d="M104.385 159.445H94.4824V169.35H104.385V159.445Z" fill="#3F3D56"/>
<path d="M201.433 163.902H121.715V164.893H201.433V163.902Z" fill="#3F3D56"/>
<path d="M313.091 68.0182L300.441 77.9909L273.636 68.5686C273.636 68.5686 264.522 58.3156 259.368 65.9522C257.603 68.5676 269.164 73.3994 270.255 73.8485C272.982 74.9711 299.101 89.3033 301.661 87.423C304.22 85.5427 318.621 76.0322 318.621 76.0322L313.091 68.0182Z" fill="#484848"/>
<path d="M356.272 51.0059C344.283 46.5251 332.878 44.4051 323.631 51.0059V29.7024C323.631 27.5587 324.053 25.4361 324.873 23.4556C325.693 21.4752 326.895 19.6757 328.411 18.1599C329.926 16.6442 331.726 15.4418 333.706 14.6215C335.686 13.8011 337.808 13.3789 339.951 13.3789C342.094 13.3789 344.217 13.8011 346.197 14.6215C348.177 15.4418 349.976 16.6442 351.492 18.1599C353.007 19.6757 354.209 21.4752 355.029 23.4557C355.85 25.4361 356.272 27.5588 356.272 29.7024L356.272 51.0059Z" fill="#1B1B1B"/>
<path d="M326.147 97.5432L325.167 104.402C325.167 104.402 322.718 111.751 325.167 125.469L285.735 233.009L314.88 241.338L329.331 182.546L349.659 137.718L347.7 188.67L337.413 243.053L367.783 241.828L376.633 148.579C378.064 133.841 375.508 118.99 369.233 105.58C366.778 100.365 364.138 96.255 361.743 95.6584C354.557 93.8687 326.147 97.5432 326.147 97.5432Z" fill="#1B1B1B"/>
<path d="M289.409 232.274L279.367 243.053C279.367 243.053 260.018 253.096 273.734 254.321C287.449 255.546 292.103 250.157 292.103 250.157C292.103 250.157 309.247 248.932 309.002 246.482C308.757 244.033 307.533 235.949 307.533 235.949L289.409 232.274Z" fill="#1B1B1B"/>
<path d="M343.903 234.873V242.467C343.903 242.467 344.148 245.652 343.903 246.387C343.658 247.122 339.985 256.185 352.23 254.226C364.476 252.266 359.578 244.672 359.578 244.672L356.639 233.648L343.903 234.873Z" fill="#1B1B1B"/>
<path d="M339.801 44.6308C346.598 44.6308 352.108 39.1196 352.108 32.3212C352.108 25.5229 346.598 20.0117 339.801 20.0117C333.004 20.0117 327.494 25.5229 327.494 32.3212C327.494 39.1196 333.004 44.6308 339.801 44.6308Z" fill="#484848"/>
<path d="M348.312 39.119C348.312 39.119 346.597 55.2867 348.312 58.2263C350.026 61.1659 330.922 55.2867 330.922 55.2867C330.922 55.2867 335.086 44.2632 333.616 39.8538C332.147 35.4444 348.312 39.119 348.312 39.119Z" fill="#484848"/>
<path d="M358.109 85.6628L362.027 96.4413L325.534 100.606C325.534 100.606 321.616 99.8708 321.616 96.6863C321.616 93.5017 317.452 82.2333 317.452 82.2333C317.452 82.2333 307.255 73.9666 302.356 71.7619C300.581 70.9633 303.237 71.2931 304.731 67.9028C305.179 66.8837 305.715 65.8083 306.301 64.7182C306.778 63.8241 307.293 62.9177 307.819 62.0236C308.459 60.9335 309.117 59.8606 309.757 58.8391C311.691 55.7501 313.457 53.1534 314.023 52.1025C315.738 48.918 331.856 48.6338 331.856 48.6338C336.465 51.5342 349.781 52.1025 349.781 52.1025C349.781 52.1025 358.941 55.9362 362.757 58.8391C363.034 59.0473 358.109 85.6628 358.109 85.6628Z" fill="#1B1B1B"/>
<path d="M350.186 17.544V17.2517L349.839 17.271C347.866 15.7681 345.576 14.7344 343.144 14.2483C340.712 13.7623 338.201 13.8365 335.802 14.4656C338.102 15.0734 340.24 16.1785 342.066 17.7029L330.27 18.3583L325.291 29.4251H328.66L331.376 24.4451V29.4251H342.773L343.547 25.5517L345.699 29.4251H347.938C347.952 29.7013 347.973 29.9755 347.973 30.2551L345.76 51.5587L356.272 47.1319V30.2551C356.274 27.8158 355.728 25.4073 354.674 23.2072C353.621 21.0071 352.087 19.0718 350.186 17.544Z" fill="#1B1B1B"/>
<path d="M366.681 73.9043L365.946 93.2566L363.987 130.736C363.987 130.736 366.681 146.904 359.823 146.659C352.965 146.414 358.109 127.552 358.109 127.552L356.149 97.9109L358.109 77.0889L366.681 73.9043Z" fill="#484848"/>
<path d="M368.64 84.438C368.64 86.6427 356.272 86.0303 356.272 86.0303L349.781 52.1025C349.781 52.1025 358.941 55.9362 362.757 58.8391C363.655 59.7708 364.39 60.8475 364.93 62.0237C365.221 62.81 365.498 63.7213 365.76 64.7183C366.019 65.7079 366.262 66.7833 366.49 67.9028C367.559 73.363 368.277 78.8861 368.64 84.438Z" fill="#1B1B1B"/>
<path d="M31.2661 163.142L12.519 161.201C12.663 160.205 12.5524 159.189 12.1975 158.248C11.8426 157.306 11.2549 156.47 10.4894 155.818C9.72391 155.165 8.8055 154.717 7.82 154.516C6.83451 154.315 5.81406 154.366 4.85398 154.666C3.89389 154.966 3.02549 155.505 2.32988 156.232C1.63427 156.958 1.13415 157.849 0.87623 158.822C0.618309 159.794 0.611009 160.816 0.855 161.792C1.09899 162.768 1.58631 163.666 2.27146 164.403C1.57534 165.155 1.08503 166.074 0.847943 167.071C0.610859 168.068 0.635029 169.109 0.918116 170.094C1.2012 171.079 1.73362 171.974 2.46389 172.693C3.19415 173.412 4.09754 173.93 5.08667 174.198C6.07581 174.465 7.11722 174.473 8.11017 174.22C9.10312 173.967 10.014 173.462 10.7547 172.754C11.4955 172.046 12.041 171.159 12.3385 170.178C12.636 169.197 12.6755 168.156 12.453 167.156L31.2661 165.426V163.142Z" fill="#CCCCCC"/>
<path d="M50.3303 176.029C57.7001 177.842 65.1244 172.613 65.5087 165.032C65.5193 164.822 65.5247 164.61 65.5247 164.397C65.5247 164.185 65.5194 163.973 65.5087 163.763C65.1244 156.182 57.7001 150.953 50.3303 152.766L25.3283 158.915C24.6081 158.914 23.8948 159.056 23.2291 159.331C22.5635 159.606 21.9586 160.01 21.4491 160.519C20.9395 161.028 20.5353 161.633 20.2595 162.298C19.9838 162.964 19.8418 163.677 19.8418 164.397C19.8418 165.118 19.9838 165.831 20.2595 166.497C20.5353 167.162 20.9395 167.767 21.4491 168.276C21.9586 168.785 22.5635 169.189 23.2291 169.464C23.8948 169.739 24.6081 169.881 25.3283 169.88L50.3303 176.029Z" fill="#9F636F"/>
</g>
<defs>
<clipPath id="clip0_1538_466">
<rect width="380" height="257" fill="white"/>
</clipPath>
</defs>
</svg>
