<svg viewBox="0 0 458 330" fill="none" xmlns="http://www.w3.org/2000/svg">
<g clip-path="url(#clip0_1538_400)">
<path d="M121.161 32.1206L132.891 43.5573L127.509 51.3991L115.524 38.8511C115.004 38.8146 114.481 38.7006 113.969 38.4991C111.184 37.403 109.785 34.1793 110.845 31.2987C111.905 28.4181 115.021 26.9714 117.806 28.0675C119.583 28.7665 120.791 30.3318 121.161 32.1206Z" fill="#2B2B2B"/>
<path d="M82.7146 319.845L91.1762 319.844L95.2015 286.087L82.7129 286.088L82.7146 319.845Z" fill="#2B2B2B"/>
<path d="M82.4169 328.975L108.438 328.974V328.634C108.437 322.849 103.903 318.159 98.3096 318.159L93.556 314.429L84.688 318.159L82.4165 318.159L82.4169 328.975Z" fill="#442F2F"/>
<path d="M102.437 310.604L110.368 313.654L125.519 283.466L113.814 278.963L102.437 310.604Z" fill="#2B2B2B"/>
<path d="M99.0806 319.054L123.469 328.435L123.584 328.116C125.534 322.694 122.864 316.663 117.622 314.646L114.424 309.437L104.855 309.735L102.726 308.916L99.0806 319.054Z" fill="#442F2F"/>
<path d="M118.463 145.103L135.636 246.123L119.536 308.844L104.51 302.739L106.657 297.743L103.437 291.083L108.267 257.779L108.274 236.495L94.8506 193.948L91.0941 263.885L96.9972 298.853L95.8859 308.844L78.2145 311.065L80.3611 303.849L69.0915 268.88L71.2381 262.22L56.2119 180.627L59.9685 154.539L118.463 145.103Z" fill="#442F2F"/>
<path d="M67.7495 45.4707H89.1436L95.6552 56.5718L102.632 54.9067L106.166 56.5718L121.951 59.9022L117.121 89.3201L116.048 123.178L116.585 137.61C122.227 141.874 120.77 147.75 119.519 154.304C119.519 154.304 65.6029 169.554 57.0165 164.683V158.39L62.1147 116.24L43.332 68.5055C42.5079 61.9705 49.183 60.2051 55.4066 58.792L61.8464 56.5718L67.7495 45.4707Z" fill="#260101"/>
<path d="M117.121 63.7875L121.951 59.9021L132.94 63.7875L128.928 57.1268V53.9167L122.488 52.1313L121.951 47.1358L117.121 43.2177L125.031 33.7773L130.806 38.8122L134.294 38.81L139.094 43.7749L156.304 68.0778C159.963 73.2447 158.91 80.6452 153.767 84.2114C151.789 85.5827 149.412 86.5448 146.637 86.5448H116.207L117.121 63.7875Z" fill="#260101"/>
<path d="M80.4706 41.9982C89.3504 41.9982 96.549 34.5527 96.549 25.3682C96.549 16.1838 89.3504 8.73828 80.4706 8.73828C71.5907 8.73828 64.3921 16.1838 64.3921 25.3682C64.3921 34.5527 71.5907 41.9982 80.4706 41.9982Z" fill="#2B2B2B"/>
<path d="M49.5642 174.13L49.1826 157.463L58.3581 155.909L58.1552 173.546C58.4955 173.954 58.7849 174.419 59.0063 174.937C60.2105 177.756 58.9771 181.051 56.2514 182.297C53.5257 183.542 50.3398 182.267 49.1356 179.448C48.3676 177.65 48.5945 175.66 49.5642 174.13Z" fill="#2B2B2B"/>
<path d="M49.2934 63.1791C45.6736 62.9644 42.7469 66.1879 43.1814 69.9109L34.4004 120.516L33.0039 123.557L34.6054 125.268L34.9421 129.189L48.3118 165.711L65.019 166.35L58.795 89.9458L54.4684 67.2437C53.7032 64.9264 51.6571 63.3193 49.2934 63.1791Z" fill="#260101"/>
<path d="M66.2474 165.852C66.408 177.851 61.4176 180.415 53.3678 177.904C46.5576 175.78 40.4883 173.209 40.4883 165.852C40.4883 158.495 44.6281 147.614 53.3678 151.262C61.1876 146.821 70.1702 157.344 66.2474 165.852Z" fill="#B01030"/>
<path d="M52.9043 151.561C51.8766 149.626 51.806 147.262 52.7607 145.281C53.6113 143.517 55.2954 142.203 57.1518 141.79C58.162 141.565 58.5937 143.17 57.5798 143.395C56.1376 143.716 55.2934 149.853 54.6018 151.209C53.8578 152.667 53.5337 149.288 54.2944 150.72C54.7936 151.66 53.4039 152.501 52.9043 151.561Z" fill="#3F3D56"/>
<path d="M130.645 20.9824C130.645 28.3395 125.816 35.5459 117.766 33.035C110.956 30.9107 102.277 31.7913 109.024 19.385C100.028 14.7326 109.026 2.74482 117.766 6.39232C125.586 1.95188 130.645 13.6252 130.645 20.9824Z" fill="#B01030"/>
<path d="M117.302 6.69117C114.17 7.44927 115.78 7.77557 117.159 3.51327C117.764 1.64341 119.693 0.434841 121.55 0.0215481C122.56 -0.20337 122.992 1.40149 121.978 1.62723C120.536 1.94831 119.297 2.88485 118.605 4.24059C117.861 5.69911 117.932 4.41859 118.692 5.85073C119.192 6.79049 117.802 7.63164 117.302 6.69117Z" fill="#3F3D56"/>
<path d="M40.6768 316.56C39.128 316.66 38.2721 314.67 39.4438 313.51L39.5604 313.031C39.5451 312.992 39.5296 312.954 39.5141 312.916C37.9478 309.053 32.6396 309.08 31.0866 312.948C29.7083 316.382 27.9534 319.821 27.5213 323.452C27.3276 325.054 27.4148 326.687 27.7586 328.259C24.5289 320.962 22.8293 312.994 22.8293 304.981C22.8293 302.968 22.9359 300.955 23.1537 298.947C23.3329 297.304 23.5799 295.671 23.8995 294.054C25.628 285.309 29.371 276.981 34.7699 270.024C37.3653 268.557 39.5297 266.263 40.837 263.514C41.3067 262.522 41.6747 261.455 41.849 260.369C41.5537 260.409 40.7354 255.756 40.9581 255.471C40.5465 254.825 39.8098 254.503 39.3602 253.873C37.1244 250.738 34.0441 251.285 32.436 255.546C29.0008 257.339 28.9675 260.313 31.0754 263.173C32.4164 264.993 32.6006 267.455 33.7773 269.403C33.6562 269.564 33.5303 269.719 33.4093 269.879C31.1894 272.824 29.2695 275.989 27.6509 279.315C28.1084 275.619 27.433 271.167 26.2817 268.297C24.9711 265.026 22.5146 262.272 20.3514 259.445C17.753 256.05 12.4248 257.532 11.967 261.836C11.9625 261.878 11.9582 261.92 11.954 261.961C12.2753 262.149 12.5901 262.348 12.8976 262.558C14.6514 263.758 14.0453 266.57 11.9672 266.902L11.9201 266.909C12.0363 268.106 12.2349 269.293 12.5254 270.46C9.7502 281.56 15.7416 285.603 24.2964 285.785C24.4853 285.885 24.6693 285.985 24.8582 286.081C23.9914 288.605 23.299 291.194 22.7857 293.818C22.3258 296.137 22.0061 298.481 21.827 300.835C21.6043 303.804 21.6236 306.789 21.8658 309.754L21.8512 309.649C21.2363 306.384 19.5222 303.334 17.0333 301.22C13.3257 298.07 8.08753 296.91 4.08765 294.378C2.16222 293.159 -0.305064 294.734 0.0309726 297.043L0.0473307 297.154C0.642899 297.404 1.22393 297.695 1.78562 298.02C2.10694 298.208 2.42171 298.407 2.7292 298.617C4.48307 299.817 3.87693 302.629 1.79879 302.961L1.7517 302.968C1.71781 302.973 1.68875 302.978 1.65491 302.983C2.67659 305.492 4.10013 307.821 5.88201 309.829C7.61725 319.52 15.0701 320.439 23.0424 317.617H23.0472C23.9188 321.543 25.1923 325.38 26.8289 329.036H40.3383C40.3867 328.88 40.4303 328.72 40.4739 328.565C39.2246 328.645 37.9657 328.57 36.7358 328.335C37.7381 327.062 38.7404 325.78 39.7427 324.508C39.7669 324.483 39.7863 324.458 39.8057 324.433C40.3141 323.782 40.8274 323.136 41.3358 322.485L41.336 322.484C41.3679 320.486 41.1358 318.493 40.6768 316.56Z" fill="#484848"/>
<path d="M191.776 329.078C191.776 329.589 191.378 330 190.884 330H0.9971C0.502334 330 0.10498 329.589 0.10498 329.078C0.10498 328.566 0.502334 328.155 0.9971 328.155H190.884C191.378 328.155 191.776 328.566 191.776 329.078Z" fill="#CCCCCC"/>
<path d="M381.533 30.8545C381.533 29.9992 380.86 29.3037 380.033 29.3037H356.793C355.966 29.3037 355.294 29.9992 355.294 30.8545C355.294 31.7098 355.966 32.4053 356.793 32.4053H380.033C380.86 32.4053 381.533 31.7098 381.533 30.8545Z" fill="#484848"/>
<path d="M419.766 31.0156C419.766 30.1603 419.094 29.4648 418.267 29.4648H395.027C394.2 29.4648 393.527 30.1603 393.527 31.0156C393.527 31.8709 394.2 32.5664 395.027 32.5664H418.267C419.094 32.5664 419.766 31.8709 419.766 31.0156Z" fill="#484848"/>
<path d="M458 31.1773C458 30.322 457.328 29.6265 456.501 29.6265H433.261C432.434 29.6265 431.761 30.322 431.761 31.1773C431.761 32.0325 432.434 32.728 433.261 32.728H456.501C457.328 32.728 458 32.0325 458 31.1773Z" fill="#484848"/>
<path d="M419.766 65.9087C419.766 65.0534 419.094 64.3579 418.267 64.3579H395.027C394.2 64.3579 393.527 65.0534 393.527 65.9087C393.527 66.764 394.2 67.4595 395.027 67.4595H418.267C419.094 67.4595 419.766 66.764 419.766 65.9087Z" fill="#484848"/>
<path d="M343.299 65.9087C343.299 65.0534 342.626 64.3579 341.8 64.3579H318.559C317.732 64.3579 317.06 65.0534 317.06 65.9087C317.06 66.764 317.732 67.4595 318.559 67.4595H341.8C342.626 67.4595 343.299 66.764 343.299 65.9087Z" fill="#484848"/>
<path d="M381.533 66.0698C381.533 65.2145 380.86 64.519 380.033 64.519H356.793C355.966 64.519 355.294 65.2145 355.294 66.0698C355.294 66.9251 355.966 67.6206 356.793 67.6206H380.033C380.86 67.6206 381.533 66.9251 381.533 66.0698Z" fill="#484848"/>
<path d="M419.766 101.577C419.766 100.721 419.094 100.026 418.267 100.026H395.027C394.2 100.026 393.527 100.721 393.527 101.577C393.527 102.432 394.2 103.127 395.027 103.127H418.267C419.094 103.127 419.766 102.432 419.766 101.577Z" fill="#484848"/>
<path d="M458 101.738C458 100.883 457.328 100.187 456.501 100.187H433.261C432.434 100.187 431.761 100.883 431.761 101.738C431.761 102.593 432.434 103.289 433.261 103.289H456.501C457.328 103.289 458 102.593 458 101.738Z" fill="#484848"/>
<path d="M305.065 101.416C305.065 100.56 304.393 99.8647 303.566 99.8647H280.326C279.499 99.8647 278.826 100.56 278.826 101.416C278.826 102.271 279.499 102.966 280.326 102.966H303.566C304.393 102.966 305.065 102.271 305.065 101.416Z" fill="#484848"/>
<path d="M343.299 101.577C343.299 100.721 342.626 100.026 341.8 100.026H318.559C317.732 100.026 317.06 100.721 317.06 101.577C317.06 102.432 317.732 103.127 318.559 103.127H341.8C342.626 103.127 343.299 102.432 343.299 101.577Z" fill="#484848"/>
<path d="M381.533 101.738C381.533 100.883 380.86 100.187 380.033 100.187H356.793C355.966 100.187 355.294 100.883 355.294 101.738C355.294 102.593 355.966 103.289 356.793 103.289H380.033C380.86 103.289 381.533 102.593 381.533 101.738Z" fill="#484848"/>
<path d="M368.603 23.3885C373.764 23.3885 377.947 19.1529 377.947 13.9281C377.947 8.70331 373.764 4.46777 368.603 4.46777C363.443 4.46777 359.26 8.70331 359.26 13.9281C359.26 19.1529 363.443 23.3885 368.603 23.3885Z" fill="#484848"/>
<path d="M367.914 17.8343L367.894 17.834C367.645 17.8268 367.416 17.6927 367.282 17.4758L364.115 12.3388C363.893 11.9776 363.995 11.4983 364.344 11.2681C364.693 11.039 365.157 11.1439 365.38 11.5051L367.951 15.677L372.784 8.72307C373.027 8.37513 373.496 8.29676 373.831 8.54588C374.167 8.79576 374.244 9.28039 374.002 9.62795L368.523 17.5114C368.382 17.7143 368.155 17.8343 367.914 17.8343Z" fill="#F2F2F2"/>
<path d="M408.337 23.3885C413.497 23.3885 417.68 19.1529 417.68 13.9281C417.68 8.70331 413.497 4.46777 408.337 4.46777C403.176 4.46777 398.993 8.70331 398.993 13.9281C398.993 19.1529 403.176 23.3885 408.337 23.3885Z" fill="#484848"/>
<path d="M407.648 17.8343L407.627 17.834C407.378 17.8268 407.149 17.6927 407.016 17.4758L403.849 12.3388C403.626 11.9776 403.729 11.4983 404.078 11.2681C404.427 11.039 404.89 11.1439 405.113 11.5051L407.685 15.677L412.518 8.72307C412.76 8.37513 413.229 8.29676 413.564 8.54588C413.9 8.79576 413.977 9.28039 413.735 9.62795L408.257 17.5114C408.116 17.7143 407.889 17.8343 407.648 17.8343Z" fill="#F2F2F2"/>
<path d="M445.071 22.6131C450.231 22.6131 454.414 18.3775 454.414 13.1527C454.414 7.92792 450.231 3.69238 445.071 3.69238C439.911 3.69238 435.728 7.92792 435.728 13.1527C435.728 18.3775 439.911 22.6131 445.071 22.6131Z" fill="#484848"/>
<path d="M444.382 17.0589L444.361 17.0586C444.113 17.0514 443.884 16.9173 443.75 16.7004L440.583 11.5634C440.36 11.2022 440.463 10.7229 440.812 10.4927C441.161 10.2636 441.624 10.3685 441.847 10.7297L444.419 14.9016L449.252 7.94768C449.495 7.59974 449.963 7.52137 450.298 7.77049C450.635 8.02037 450.711 8.50499 450.47 8.85256L444.991 16.736C444.85 16.9389 444.623 17.0589 444.382 17.0589Z" fill="#F2F2F2"/>
<path d="M458 63.7437C458 62.8884 457.328 62.1929 456.501 62.1929H433.261C432.434 62.1929 431.761 62.8884 431.761 63.7437C431.761 64.5989 432.434 65.2944 433.261 65.2944H456.501C457.328 65.2944 458 64.5989 458 63.7437Z" fill="#484848"/>
<path d="M445.071 55.1795C450.231 55.1795 454.414 50.9439 454.414 45.7191C454.414 40.4943 450.231 36.2588 445.071 36.2588C439.911 36.2588 435.728 40.4943 435.728 45.7191C435.728 50.9439 439.911 55.1795 445.071 55.1795Z" fill="#484848"/>
<path d="M444.382 49.6254L444.361 49.625C444.113 49.6178 443.884 49.4837 443.75 49.2668L440.583 44.1298C440.36 43.7686 440.463 43.2893 440.812 43.0591C441.161 42.83 441.624 42.9349 441.847 43.2961L444.419 47.468L449.252 40.5141C449.495 40.1661 449.963 40.0878 450.298 40.3369C450.635 40.5868 450.711 41.0714 450.47 41.419L444.991 49.3024C444.85 49.5053 444.623 49.6254 444.382 49.6254Z" fill="#F2F2F2"/>
<path d="M406.837 60.6072C411.997 60.6072 416.181 56.3717 416.181 51.1469C416.181 45.9221 411.997 41.6865 406.837 41.6865C401.677 41.6865 397.494 45.9221 397.494 51.1469C397.494 56.3717 401.677 60.6072 406.837 60.6072Z" fill="#484848"/>
<path d="M406.148 55.0531L406.128 55.0527C405.879 55.0455 405.65 54.9115 405.516 54.6945L402.349 49.5576C402.127 49.1964 402.229 48.717 402.578 48.4868C402.927 48.2578 403.391 48.3627 403.613 48.7238L406.185 52.8958L411.018 45.9418C411.261 45.5939 411.73 45.5155 412.065 45.7646C412.401 46.0145 412.477 46.4991 412.236 46.8467L406.757 54.7301C406.616 54.9331 406.389 55.0531 406.148 55.0531Z" fill="#F2F2F2"/>
<path d="M369.353 60.6072C374.514 60.6072 378.697 56.3717 378.697 51.1469C378.697 45.9221 374.514 41.6865 369.353 41.6865C364.193 41.6865 360.01 45.9221 360.01 51.1469C360.01 56.3717 364.193 60.6072 369.353 60.6072Z" fill="#484848"/>
<path d="M368.664 55.0531L368.644 55.0527C368.395 55.0455 368.166 54.9115 368.032 54.6945L364.865 49.5576C364.643 49.1964 364.745 48.717 365.094 48.4868C365.443 48.2578 365.907 48.3627 366.13 48.7238L368.701 52.8958L373.534 45.9418C373.777 45.5939 374.246 45.5155 374.581 45.7646C374.917 46.0145 374.994 46.4991 374.752 46.8467L369.273 54.7301C369.132 54.9331 368.905 55.0531 368.664 55.0531Z" fill="#F2F2F2"/>
<path d="M330.37 60.6072C335.53 60.6072 339.713 56.3717 339.713 51.1469C339.713 45.9221 335.53 41.6865 330.37 41.6865C325.21 41.6865 321.026 45.9221 321.026 51.1469C321.026 56.3717 325.21 60.6072 330.37 60.6072Z" fill="#484848"/>
<path d="M329.681 55.0531L329.66 55.0527C329.412 55.0455 329.183 54.9115 329.049 54.6945L325.882 49.5576C325.659 49.1964 325.762 48.717 326.111 48.4868C326.46 48.2578 326.923 48.3627 327.146 48.7238L329.718 52.8958L334.551 45.9418C334.793 45.5939 335.262 45.5155 335.597 45.7646C335.934 46.0145 336.01 46.4991 335.769 46.8467L330.29 54.7301C330.149 54.9331 329.922 55.0531 329.681 55.0531Z" fill="#F2F2F2"/>
<path d="M325.781 65.6959C325.781 63.8811 324.354 62.4053 322.6 62.4053H273.286C271.532 62.4053 270.105 63.8811 270.105 65.6959C270.105 67.5107 271.532 68.9865 273.286 68.9865H322.6C324.354 68.9865 325.781 67.5107 325.781 65.6959Z" fill="#3F3D56"/>
<path d="M298.346 54.1048C309.296 54.1048 318.172 45.1174 318.172 34.0309C318.172 22.9444 309.296 13.957 298.346 13.957C287.397 13.957 278.521 22.9444 278.521 34.0309C278.521 45.1174 287.397 54.1048 298.346 54.1048Z" fill="#260101"/>
<path d="M296.885 42.3192C296.87 42.3192 296.856 42.3192 296.841 42.3184C296.313 42.3031 295.827 42.0187 295.544 41.5584L288.823 30.6582C288.351 29.8918 288.569 28.8747 289.31 28.3862C290.05 27.9002 291.033 28.1227 291.506 28.8892L296.964 37.7415L307.219 22.986C307.733 22.2477 308.728 22.0814 309.439 22.61C310.152 23.1402 310.315 24.1685 309.802 24.906L298.177 41.6339C297.878 42.0645 297.396 42.3192 296.885 42.3192Z" fill="#F2F2F2"/>
<path d="M93.9003 12.0382C94.8749 12.5344 95.7895 13.1547 96.6141 13.8681C96.854 14.0775 94.5825 14.3566 94.8074 14.5737C93.1956 17.2566 99.9127 20.614 97.0564 20.7769C96.4867 19.5207 87.6929 16.582 86.7408 15.6127C86.8758 16.7293 90.4367 18.1173 90.3093 19.2261C87.1082 19.0167 79.9712 17.7761 76.0654 16.1245C78.4185 20.9748 78.4363 24.7869 73.0667 26.2046C69.0479 26.2046 66.2421 30.3226 67.5938 34.2371L68.5686 37.0602L64.8202 33.1832C63.2612 31.5708 60.2421 27.7563 59.2484 23.6838C58.5347 20.759 59.1161 17.6943 60.6015 15.0984C60.6564 15.0024 60.706 14.9099 60.7494 14.8219C59.9023 15.225 59.0176 15.5352 58.1105 15.7446C58.073 14.0542 64.4153 10.9216 64.8202 9.92135C66.7019 5.26122 63.958 5.26899 71.5673 5.26899C72.2233 4.81668 73.541 5.58937 75.3157 5.26899C78.5816 4.67938 79.9317 2.3742 83.9866 3.2556C87.4859 4.01624 90.8908 5.13191 93.5318 6.27004L94.8074 6.81977C95.5796 8.09914 95.8944 9.29328 95.8494 10.3788C95.782 10.3633 95.707 10.3478 95.6395 10.34C94.3126 10.1462 95.2047 11.7435 93.9003 12.0382Z" fill="#442F2F"/>
</g>
<defs>
<clipPath id="clip0_1538_400">
<rect width="458" height="330" fill="white"/>
</clipPath>
</defs>
</svg>
